<mxfile host="app.diagrams.net" agent="Mozilla/5.0 (Macintosh; Intel Mac OS X 10_15_7) AppleWebKit/537.36 (KHTML, like Gecko) Chrome/131.0.0.0 Safari/537.36" version="26.0.11">
  <diagram id="y_Ux036iL8ao2liGmcVH" name="core-domain-chart">
    <mxGraphModel dx="1865" dy="1096" grid="1" gridSize="10" guides="1" tooltips="1" connect="1" arrows="1" fold="1" page="1" pageScale="1" pageWidth="850" pageHeight="1100" math="0" shadow="0">
      <root>
        <mxCell id="7POqw8fOx_1jlbIEAkON-0" />
        <mxCell id="7POqw8fOx_1jlbIEAkON-1" style="locked=1;" parent="7POqw8fOx_1jlbIEAkON-0" />
        <mxCell id="uENPYtC2MfaOTDSbOvwd-11" value="" style="group" parent="7POqw8fOx_1jlbIEAkON-1" vertex="1" connectable="0">
          <mxGeometry x="79.5" y="30" width="870.5" height="800" as="geometry" />
        </mxCell>
        <mxCell id="uENPYtC2MfaOTDSbOvwd-5" value="" style="rounded=0;whiteSpace=wrap;html=1;fillColor=#9933FF;strokeColor=none;connectable=0;fillOpacity=60;" parent="uENPYtC2MfaOTDSbOvwd-11" vertex="1">
          <mxGeometry x="200.5" y="14" width="220" height="740" as="geometry" />
        </mxCell>
        <mxCell id="uENPYtC2MfaOTDSbOvwd-7" value="" style="rounded=0;whiteSpace=wrap;html=1;fillColor=#9933FF;strokeColor=none;connectable=0;fillOpacity=60;" parent="uENPYtC2MfaOTDSbOvwd-11" vertex="1">
          <mxGeometry x="420" y="414" width="420.5" height="340" as="geometry" />
        </mxCell>
        <mxCell id="uENPYtC2MfaOTDSbOvwd-0" value="" style="endArrow=classic;html=1;" parent="uENPYtC2MfaOTDSbOvwd-11" edge="1">
          <mxGeometry width="50" height="50" relative="1" as="geometry">
            <mxPoint x="40.5" y="770" as="sourcePoint" />
            <mxPoint x="40.5" as="targetPoint" />
          </mxGeometry>
        </mxCell>
        <mxCell id="uENPYtC2MfaOTDSbOvwd-1" value="&lt;h2&gt;Complexity&lt;/h2&gt;" style="text;html=1;strokeColor=none;fillColor=none;align=center;verticalAlign=middle;whiteSpace=wrap;rounded=0;rotation=-90;" parent="uENPYtC2MfaOTDSbOvwd-11" vertex="1">
          <mxGeometry x="-9.5" y="370" width="39" height="20" as="geometry" />
        </mxCell>
        <mxCell id="uENPYtC2MfaOTDSbOvwd-2" value="" style="endArrow=classic;html=1;" parent="uENPYtC2MfaOTDSbOvwd-11" edge="1">
          <mxGeometry width="50" height="50" relative="1" as="geometry">
            <mxPoint x="40.5" y="770" as="sourcePoint" />
            <mxPoint x="860.5" y="770" as="targetPoint" />
          </mxGeometry>
        </mxCell>
        <mxCell id="uENPYtC2MfaOTDSbOvwd-4" value="&lt;h2&gt;Business differentiation&lt;/h2&gt;" style="text;html=1;strokeColor=none;fillColor=none;align=center;verticalAlign=middle;whiteSpace=wrap;rounded=0;" parent="uENPYtC2MfaOTDSbOvwd-11" vertex="1">
          <mxGeometry x="330.5" y="780" width="260" height="20" as="geometry" />
        </mxCell>
        <mxCell id="uENPYtC2MfaOTDSbOvwd-6" value="&lt;h1&gt;&lt;font color=&quot;#ffffff&quot;&gt;Core&lt;/font&gt;&lt;/h1&gt;" style="rounded=0;whiteSpace=wrap;html=1;fillColor=#4D9900;strokeColor=none;connectable=0;fillOpacity=60" parent="uENPYtC2MfaOTDSbOvwd-11" vertex="1">
          <mxGeometry x="420.5" y="14" width="420" height="400" as="geometry" />
        </mxCell>
        <mxCell id="uENPYtC2MfaOTDSbOvwd-8" value="" style="rounded=0;whiteSpace=wrap;html=1;fillColor=#B3B3B3;strokeColor=none;connectable=0;fillOpacity=60;" parent="uENPYtC2MfaOTDSbOvwd-11" vertex="1">
          <mxGeometry x="50.5" y="15" width="150" height="740" as="geometry" />
        </mxCell>
        <mxCell id="uENPYtC2MfaOTDSbOvwd-9" value="&lt;h1&gt;&lt;font color=&quot;#ffffff&quot;&gt;Supporting&lt;/font&gt;&lt;/h1&gt;" style="text;html=1;strokeColor=none;fillColor=none;align=center;verticalAlign=middle;whiteSpace=wrap;rounded=0;" parent="uENPYtC2MfaOTDSbOvwd-11" vertex="1">
          <mxGeometry x="325.5" y="460" width="40" height="20" as="geometry" />
        </mxCell>
        <mxCell id="uENPYtC2MfaOTDSbOvwd-10" value="&lt;h1&gt;&lt;font color=&quot;#ffffff&quot;&gt;Generic&lt;/font&gt;&lt;/h1&gt;" style="text;html=1;strokeColor=none;fillColor=none;align=center;verticalAlign=middle;whiteSpace=wrap;rounded=0;" parent="uENPYtC2MfaOTDSbOvwd-11" vertex="1">
          <mxGeometry x="110.5" y="460" width="40" height="20" as="geometry" />
        </mxCell>
        <mxCell id="rGnyAY1_3tPmR1fd7tcl-27" value="Low" style="text;html=1;strokeColor=none;fillColor=none;align=center;verticalAlign=middle;whiteSpace=wrap;rounded=0;rotation=-90;" parent="uENPYtC2MfaOTDSbOvwd-11" vertex="1">
          <mxGeometry x="10.5" y="755" width="40" height="20" as="geometry" />
        </mxCell>
        <mxCell id="rGnyAY1_3tPmR1fd7tcl-28" value="High" style="text;html=1;strokeColor=none;fillColor=none;align=center;verticalAlign=middle;whiteSpace=wrap;rounded=0;rotation=-90;" parent="uENPYtC2MfaOTDSbOvwd-11" vertex="1">
          <mxGeometry width="40" height="20" as="geometry" />
        </mxCell>
        <mxCell id="rGnyAY1_3tPmR1fd7tcl-29" value="Low" style="text;html=1;strokeColor=none;fillColor=none;align=center;verticalAlign=middle;whiteSpace=wrap;rounded=0;" parent="uENPYtC2MfaOTDSbOvwd-11" vertex="1">
          <mxGeometry x="40" y="775" width="40" height="20" as="geometry" />
        </mxCell>
        <mxCell id="rGnyAY1_3tPmR1fd7tcl-30" value="High" style="text;html=1;strokeColor=none;fillColor=none;align=center;verticalAlign=middle;whiteSpace=wrap;rounded=0;" parent="uENPYtC2MfaOTDSbOvwd-11" vertex="1">
          <mxGeometry x="830.5" y="775" width="40" height="20" as="geometry" />
        </mxCell>
        <mxCell id="gb_rX9cqDN27GrjKiAtr-1" value="" style="rounded=0;whiteSpace=wrap;html=1;fillColor=#B6B6E3;connectable=0;" parent="7POqw8fOx_1jlbIEAkON-1" vertex="1">
          <mxGeometry x="1065" y="40" width="210" height="520" as="geometry" />
        </mxCell>
        <mxCell id="gb_rX9cqDN27GrjKiAtr-2" value="&lt;h2&gt;&lt;b&gt;Notation&lt;/b&gt;&lt;/h2&gt;" style="text;html=1;strokeColor=none;fillColor=none;align=center;verticalAlign=middle;whiteSpace=wrap;rounded=0;" parent="7POqw8fOx_1jlbIEAkON-1" vertex="1">
          <mxGeometry x="1140" y="50" width="40" height="20" as="geometry" />
        </mxCell>
        <mxCell id="gb_rX9cqDN27GrjKiAtr-3" value="&lt;h3&gt;Team topologies&lt;/h3&gt;" style="text;html=1;strokeColor=none;fillColor=none;align=center;verticalAlign=middle;whiteSpace=wrap;rounded=0;" parent="7POqw8fOx_1jlbIEAkON-1" vertex="1">
          <mxGeometry x="1107.5" y="390" width="125" height="20" as="geometry" />
        </mxCell>
        <mxCell id="uENPYtC2MfaOTDSbOvwd-12" value="Bounded contexts" style="" parent="7POqw8fOx_1jlbIEAkON-0" />
        <mxCell id="rGnyAY1_3tPmR1fd7tcl-4" value="" style="group" parent="uENPYtC2MfaOTDSbOvwd-12" vertex="1" connectable="0">
          <mxGeometry x="1080" y="95" width="210" height="570" as="geometry" />
        </mxCell>
        <mxCell id="rGnyAY1_3tPmR1fd7tcl-16" value="" style="group" parent="rGnyAY1_3tPmR1fd7tcl-4" vertex="1" connectable="0">
          <mxGeometry width="210" height="570" as="geometry" />
        </mxCell>
        <mxCell id="rGnyAY1_3tPmR1fd7tcl-0" value="" style="ellipse;whiteSpace=wrap;html=1;aspect=fixed;fillColor=#FF3333;" parent="rGnyAY1_3tPmR1fd7tcl-16" vertex="1">
          <mxGeometry width="20" height="20" as="geometry" />
        </mxCell>
        <mxCell id="rGnyAY1_3tPmR1fd7tcl-1" value="Bounded context&lt;br&gt;(current position)" style="text;html=1;strokeColor=none;fillColor=none;align=center;verticalAlign=middle;whiteSpace=wrap;rounded=0;" parent="rGnyAY1_3tPmR1fd7tcl-16" vertex="1">
          <mxGeometry x="20" width="110" height="20" as="geometry" />
        </mxCell>
        <mxCell id="rGnyAY1_3tPmR1fd7tcl-17" value="" style="group" parent="uENPYtC2MfaOTDSbOvwd-12" vertex="1" connectable="0">
          <mxGeometry x="1080" y="140" width="130" height="20" as="geometry" />
        </mxCell>
        <mxCell id="rGnyAY1_3tPmR1fd7tcl-18" value="" style="ellipse;whiteSpace=wrap;html=1;aspect=fixed;fillColor=#CCCCCC;strokeColor=#FFFFFF;" parent="rGnyAY1_3tPmR1fd7tcl-17" vertex="1">
          <mxGeometry width="20" height="20" as="geometry" />
        </mxCell>
        <mxCell id="rGnyAY1_3tPmR1fd7tcl-19" value="Bounded context&lt;br&gt;(furture position)" style="text;html=1;strokeColor=none;fillColor=none;align=center;verticalAlign=middle;whiteSpace=wrap;rounded=0;" parent="rGnyAY1_3tPmR1fd7tcl-17" vertex="1">
          <mxGeometry x="20" width="110" height="20" as="geometry" />
        </mxCell>
        <mxCell id="nYDZqwLP2YVh0ZIpUsSY-9" value="" style="group" parent="uENPYtC2MfaOTDSbOvwd-12" vertex="1" connectable="0">
          <mxGeometry x="1078" y="180" width="160" height="30" as="geometry" />
        </mxCell>
        <mxCell id="nYDZqwLP2YVh0ZIpUsSY-7" value="" style="endArrow=classic;html=1;dashed=1;" parent="nYDZqwLP2YVh0ZIpUsSY-9" edge="1">
          <mxGeometry width="50" height="50" relative="1" as="geometry">
            <mxPoint as="sourcePoint" />
            <mxPoint x="30" y="30" as="targetPoint" />
          </mxGeometry>
        </mxCell>
        <mxCell id="nYDZqwLP2YVh0ZIpUsSY-8" value="Movement over time" style="text;html=1;strokeColor=none;fillColor=none;align=center;verticalAlign=middle;whiteSpace=wrap;rounded=0;" parent="nYDZqwLP2YVh0ZIpUsSY-9" vertex="1">
          <mxGeometry x="30" width="130" height="20" as="geometry" />
        </mxCell>
        <mxCell id="nYDZqwLP2YVh0ZIpUsSY-10" value="" style="group" parent="uENPYtC2MfaOTDSbOvwd-12" vertex="1" connectable="0">
          <mxGeometry x="1080" y="230" width="130" height="20" as="geometry" />
        </mxCell>
        <mxCell id="nYDZqwLP2YVh0ZIpUsSY-11" value="" style="group" parent="nYDZqwLP2YVh0ZIpUsSY-10" vertex="1" connectable="0">
          <mxGeometry width="130" height="20" as="geometry" />
        </mxCell>
        <mxCell id="nYDZqwLP2YVh0ZIpUsSY-12" value="" style="ellipse;whiteSpace=wrap;html=1;aspect=fixed;fillColor=#66B2FF;" parent="nYDZqwLP2YVh0ZIpUsSY-11" vertex="1">
          <mxGeometry width="20" height="20" as="geometry" />
        </mxCell>
        <mxCell id="nYDZqwLP2YVh0ZIpUsSY-13" value="Big-bet sub-domain" style="text;html=1;strokeColor=none;fillColor=none;align=center;verticalAlign=middle;whiteSpace=wrap;rounded=0;" parent="nYDZqwLP2YVh0ZIpUsSY-11" vertex="1">
          <mxGeometry x="20" width="110" height="20" as="geometry" />
        </mxCell>
        <mxCell id="nYDZqwLP2YVh0ZIpUsSY-15" value="" style="group" parent="uENPYtC2MfaOTDSbOvwd-12" vertex="1" connectable="0">
          <mxGeometry x="1078" y="280" width="140" height="20" as="geometry" />
        </mxCell>
        <mxCell id="nYDZqwLP2YVh0ZIpUsSY-16" value="" style="group" parent="nYDZqwLP2YVh0ZIpUsSY-15" vertex="1" connectable="0">
          <mxGeometry width="140" height="20" as="geometry" />
        </mxCell>
        <mxCell id="nYDZqwLP2YVh0ZIpUsSY-17" value="" style="ellipse;whiteSpace=wrap;html=1;aspect=fixed;fillColor=#FFFF66;" parent="nYDZqwLP2YVh0ZIpUsSY-16" vertex="1">
          <mxGeometry width="20" height="20" as="geometry" />
        </mxCell>
        <mxCell id="nYDZqwLP2YVh0ZIpUsSY-18" value="Platform sub-domain" style="text;html=1;strokeColor=none;fillColor=none;align=center;verticalAlign=middle;whiteSpace=wrap;rounded=0;" parent="nYDZqwLP2YVh0ZIpUsSY-16" vertex="1">
          <mxGeometry x="20" width="120" height="20" as="geometry" />
        </mxCell>
        <mxCell id="nYDZqwLP2YVh0ZIpUsSY-21" value="" style="group" parent="uENPYtC2MfaOTDSbOvwd-12" vertex="1" connectable="0">
          <mxGeometry x="1078" y="330" width="160" height="20" as="geometry" />
        </mxCell>
        <mxCell id="nYDZqwLP2YVh0ZIpUsSY-22" value="" style="group" parent="nYDZqwLP2YVh0ZIpUsSY-21" vertex="1" connectable="0">
          <mxGeometry width="160" height="20" as="geometry" />
        </mxCell>
        <mxCell id="nYDZqwLP2YVh0ZIpUsSY-23" value="" style="ellipse;whiteSpace=wrap;html=1;aspect=fixed;fillColor=#99FF99;" parent="nYDZqwLP2YVh0ZIpUsSY-22" vertex="1">
          <mxGeometry width="20" height="20" as="geometry" />
        </mxCell>
        <mxCell id="nYDZqwLP2YVh0ZIpUsSY-24" value="Outsourced/purchased sub-domain" style="text;html=1;strokeColor=none;fillColor=none;align=center;verticalAlign=middle;whiteSpace=wrap;rounded=0;" parent="nYDZqwLP2YVh0ZIpUsSY-22" vertex="1">
          <mxGeometry x="24.615384615384617" width="135.3846153846154" height="20" as="geometry" />
        </mxCell>
        <mxCell id="gb_rX9cqDN27GrjKiAtr-4" value="X" style="whiteSpace=wrap;html=1;aspect=fixed;fillColor=#FFFF66;" parent="uENPYtC2MfaOTDSbOvwd-12" vertex="1">
          <mxGeometry x="1078" y="432" width="20" height="20" as="geometry" />
        </mxCell>
        <mxCell id="gb_rX9cqDN27GrjKiAtr-6" value="X" style="whiteSpace=wrap;html=1;aspect=fixed;fillColor=#66B2FF;" parent="uENPYtC2MfaOTDSbOvwd-12" vertex="1">
          <mxGeometry x="1078" y="472" width="20" height="20" as="geometry" />
        </mxCell>
        <mxCell id="gb_rX9cqDN27GrjKiAtr-7" value="C" style="whiteSpace=wrap;html=1;aspect=fixed;fillColor=#99FF99;" parent="uENPYtC2MfaOTDSbOvwd-12" vertex="1">
          <mxGeometry x="1078" y="512" width="20" height="20" as="geometry" />
        </mxCell>
        <mxCell id="gb_rX9cqDN27GrjKiAtr-8" value="Team size" style="text;html=1;strokeColor=none;fillColor=none;align=center;verticalAlign=middle;whiteSpace=wrap;rounded=0;" parent="uENPYtC2MfaOTDSbOvwd-12" vertex="1">
          <mxGeometry x="1112" y="434" width="80" height="20" as="geometry" />
        </mxCell>
        <mxCell id="gb_rX9cqDN27GrjKiAtr-9" value="X-as-a-service" style="text;html=1;strokeColor=none;fillColor=none;align=center;verticalAlign=middle;whiteSpace=wrap;rounded=0;" parent="uENPYtC2MfaOTDSbOvwd-12" vertex="1">
          <mxGeometry x="1118" y="474" width="92" height="20" as="geometry" />
        </mxCell>
        <mxCell id="gb_rX9cqDN27GrjKiAtr-10" value="Collaboration" style="text;html=1;strokeColor=none;fillColor=none;align=center;verticalAlign=middle;whiteSpace=wrap;rounded=0;" parent="uENPYtC2MfaOTDSbOvwd-12" vertex="1">
          <mxGeometry x="1138" y="512" width="40" height="20" as="geometry" />
        </mxCell>
        <mxCell id="HIj3TcdZRF9_gB8s9f1E-0" value="" style="group" parent="uENPYtC2MfaOTDSbOvwd-12" vertex="1" connectable="0">
          <mxGeometry x="460" y="710" width="130" height="20" as="geometry" />
        </mxCell>
        <mxCell id="rGnyAY1_3tPmR1fd7tcl-8" value="" style="ellipse;whiteSpace=wrap;html=1;aspect=fixed;fillColor=#FF3333;" parent="HIj3TcdZRF9_gB8s9f1E-0" vertex="1">
          <mxGeometry width="20" height="20" as="geometry" />
        </mxCell>
        <mxCell id="rGnyAY1_3tPmR1fd7tcl-9" value="Привлечение клиентов" style="text;html=1;strokeColor=none;fillColor=none;align=center;verticalAlign=middle;whiteSpace=wrap;rounded=0;" parent="HIj3TcdZRF9_gB8s9f1E-0" vertex="1">
          <mxGeometry x="20" width="110" height="20" as="geometry" />
        </mxCell>
        <mxCell id="HIj3TcdZRF9_gB8s9f1E-1" value="" style="group" parent="uENPYtC2MfaOTDSbOvwd-12" vertex="1" connectable="0">
          <mxGeometry x="560" y="320" width="130" height="20" as="geometry" />
        </mxCell>
        <mxCell id="HIj3TcdZRF9_gB8s9f1E-2" value="" style="ellipse;whiteSpace=wrap;html=1;aspect=fixed;fillColor=#FF3333;" parent="HIj3TcdZRF9_gB8s9f1E-1" vertex="1">
          <mxGeometry width="20" height="20" as="geometry" />
        </mxCell>
        <mxCell id="HIj3TcdZRF9_gB8s9f1E-3" value="Отбор котов воркеров" style="text;html=1;strokeColor=none;fillColor=none;align=center;verticalAlign=middle;whiteSpace=wrap;rounded=0;" parent="HIj3TcdZRF9_gB8s9f1E-1" vertex="1">
          <mxGeometry x="20" width="110" height="20" as="geometry" />
        </mxCell>
        <mxCell id="HIj3TcdZRF9_gB8s9f1E-4" value="" style="group" parent="uENPYtC2MfaOTDSbOvwd-12" vertex="1" connectable="0">
          <mxGeometry x="740" y="200" width="130" height="20" as="geometry" />
        </mxCell>
        <mxCell id="HIj3TcdZRF9_gB8s9f1E-5" value="" style="ellipse;whiteSpace=wrap;html=1;aspect=fixed;fillColor=#FF3333;" parent="HIj3TcdZRF9_gB8s9f1E-4" vertex="1">
          <mxGeometry width="20" height="20" as="geometry" />
        </mxCell>
        <mxCell id="HIj3TcdZRF9_gB8s9f1E-6" value="Эффективный матчинг воркеров и заказов&lt;span style=&quot;color: rgba(0, 0, 0, 0); font-family: monospace; font-size: 0px; text-align: start; text-wrap-mode: nowrap;&quot;&gt;%3CmxGraphModel%3E%3Croot%3E%3CmxCell%20id%3D%220%22%2F%3E%3CmxCell%20id%3D%221%22%20parent%3D%220%22%2F%3E%3CmxCell%20id%3D%222%22%20value%3D%22%22%20style%3D%22group%22%20vertex%3D%221%22%20connectable%3D%220%22%20parent%3D%221%22%3E%3CmxGeometry%20x%3D%22540%22%20y%3D%22170%22%20width%3D%22130%22%20height%3D%2220%22%20as%3D%22geometry%22%2F%3E%3C%2FmxCell%3E%3CmxCell%20id%3D%223%22%20value%3D%22%22%20style%3D%22ellipse%3BwhiteSpace%3Dwrap%3Bhtml%3D1%3Baspect%3Dfixed%3BfillColor%3D%23FF3333%3B%22%20vertex%3D%221%22%20parent%3D%222%22%3E%3CmxGeometry%20width%3D%2220%22%20height%3D%2220%22%20as%3D%22geometry%22%2F%3E%3C%2FmxCell%3E%3CmxCell%20id%3D%224%22%20value%3D%22%D0%9F%D1%80%D0%B8%D0%B2%D0%BB%D0%B5%D1%87%D0%B5%D0%BD%D0%B8%D0%B5%20%D0%BA%D0%BB%D0%B8%D0%B5%D0%BD%D1%82%D0%BE%D0%B2%22%20style%3D%22text%3Bhtml%3D1%3BstrokeColor%3Dnone%3BfillColor%3Dnone%3Balign%3Dcenter%3BverticalAlign%3Dmiddle%3BwhiteSpace%3Dwrap%3Brounded%3D0%3B%22%20vertex%3D%221%22%20parent%3D%222%22%3E%3CmxGeometry%20x%3D%2220%22%20width%3D%22110%22%20height%3D%2220%22%20as%3D%22geometry%22%2F%3E%3C%2FmxCell%3E%3C%2Froot%3E%3C%2FmxGraphModel%3E&lt;/span&gt;" style="text;html=1;strokeColor=none;fillColor=none;align=center;verticalAlign=middle;whiteSpace=wrap;rounded=0;" parent="HIj3TcdZRF9_gB8s9f1E-4" vertex="1">
          <mxGeometry x="20" width="110" height="20" as="geometry" />
        </mxCell>
        <mxCell id="HIj3TcdZRF9_gB8s9f1E-12" value="" style="group" parent="uENPYtC2MfaOTDSbOvwd-12" vertex="1" connectable="0">
          <mxGeometry x="750" y="390" width="130" height="20" as="geometry" />
        </mxCell>
        <mxCell id="HIj3TcdZRF9_gB8s9f1E-13" value="" style="ellipse;whiteSpace=wrap;html=1;aspect=fixed;fillColor=#FF3333;" parent="HIj3TcdZRF9_gB8s9f1E-12" vertex="1">
          <mxGeometry width="20" height="20" as="geometry" />
        </mxCell>
        <mxCell id="HIj3TcdZRF9_gB8s9f1E-14" value="Управление заказами" style="text;html=1;strokeColor=none;fillColor=none;align=center;verticalAlign=middle;whiteSpace=wrap;rounded=0;" parent="HIj3TcdZRF9_gB8s9f1E-12" vertex="1">
          <mxGeometry x="20" width="110" height="20" as="geometry" />
        </mxCell>
        <mxCell id="HIj3TcdZRF9_gB8s9f1E-15" value="" style="group" parent="uENPYtC2MfaOTDSbOvwd-12" vertex="1" connectable="0">
          <mxGeometry x="330" y="520" width="130" height="20" as="geometry" />
        </mxCell>
        <mxCell id="HIj3TcdZRF9_gB8s9f1E-16" value="" style="ellipse;whiteSpace=wrap;html=1;aspect=fixed;fillColor=#FF3333;" parent="HIj3TcdZRF9_gB8s9f1E-15" vertex="1">
          <mxGeometry width="20" height="20" as="geometry" />
        </mxCell>
        <mxCell id="HIj3TcdZRF9_gB8s9f1E-17" value="Сборка расходников для заказа" style="text;html=1;strokeColor=none;fillColor=none;align=center;verticalAlign=middle;whiteSpace=wrap;rounded=0;" parent="HIj3TcdZRF9_gB8s9f1E-15" vertex="1">
          <mxGeometry x="20" width="110" height="20" as="geometry" />
        </mxCell>
        <mxCell id="HIj3TcdZRF9_gB8s9f1E-19" value="" style="group" parent="uENPYtC2MfaOTDSbOvwd-12" vertex="1" connectable="0">
          <mxGeometry x="140" y="645" width="130" height="20" as="geometry" />
        </mxCell>
        <mxCell id="HIj3TcdZRF9_gB8s9f1E-20" value="" style="ellipse;whiteSpace=wrap;html=1;aspect=fixed;fillColor=#FF3333;" parent="HIj3TcdZRF9_gB8s9f1E-19" vertex="1">
          <mxGeometry width="20" height="20" as="geometry" />
        </mxCell>
        <mxCell id="HIj3TcdZRF9_gB8s9f1E-21" value="Мотивация менеджеров" style="text;html=1;strokeColor=none;fillColor=none;align=center;verticalAlign=middle;whiteSpace=wrap;rounded=0;" parent="HIj3TcdZRF9_gB8s9f1E-19" vertex="1">
          <mxGeometry x="20" width="110" height="20" as="geometry" />
        </mxCell>
        <mxCell id="Bjrs3pC4CscEYjOhwciQ-0" value="" style="shape=table;startSize=0;container=1;collapsible=0;childLayout=tableLayout;fontSize=16;" vertex="1" parent="uENPYtC2MfaOTDSbOvwd-12">
          <mxGeometry x="120" y="880" width="1282" height="884" as="geometry" />
        </mxCell>
        <mxCell id="Bjrs3pC4CscEYjOhwciQ-1" value="" style="shape=tableRow;horizontal=0;startSize=0;swimlaneHead=0;swimlaneBody=0;strokeColor=inherit;top=0;left=0;bottom=0;right=0;collapsible=0;dropTarget=0;fillColor=none;points=[[0,0.5],[1,0.5]];portConstraint=eastwest;fontSize=16;" vertex="1" parent="Bjrs3pC4CscEYjOhwciQ-0">
          <mxGeometry width="1282" height="126" as="geometry" />
        </mxCell>
        <mxCell id="Bjrs3pC4CscEYjOhwciQ-2" value="Поддомен" style="shape=partialRectangle;html=1;whiteSpace=wrap;connectable=0;strokeColor=inherit;overflow=hidden;fillColor=none;top=0;left=0;bottom=0;right=0;pointerEvents=1;fontSize=16;" vertex="1" parent="Bjrs3pC4CscEYjOhwciQ-1">
          <mxGeometry width="183" height="126" as="geometry">
            <mxRectangle width="183" height="126" as="alternateBounds" />
          </mxGeometry>
        </mxCell>
        <mxCell id="Bjrs3pC4CscEYjOhwciQ-3" value="Конкурентное преимущество" style="shape=partialRectangle;html=1;whiteSpace=wrap;connectable=0;strokeColor=inherit;overflow=hidden;fillColor=none;top=0;left=0;bottom=0;right=0;pointerEvents=1;fontSize=16;" vertex="1" parent="Bjrs3pC4CscEYjOhwciQ-1">
          <mxGeometry x="183" width="184" height="126" as="geometry">
            <mxRectangle width="184" height="126" as="alternateBounds" />
          </mxGeometry>
        </mxCell>
        <mxCell id="Bjrs3pC4CscEYjOhwciQ-4" value="Сложность доменной модели" style="shape=partialRectangle;html=1;whiteSpace=wrap;connectable=0;strokeColor=inherit;overflow=hidden;fillColor=none;top=0;left=0;bottom=0;right=0;pointerEvents=1;fontSize=16;" vertex="1" parent="Bjrs3pC4CscEYjOhwciQ-1">
          <mxGeometry x="367" width="183" height="126" as="geometry">
            <mxRectangle width="183" height="126" as="alternateBounds" />
          </mxGeometry>
        </mxCell>
        <mxCell id="Bjrs3pC4CscEYjOhwciQ-5" value="Изменчивость" style="shape=partialRectangle;html=1;whiteSpace=wrap;connectable=0;strokeColor=inherit;overflow=hidden;fillColor=none;top=0;left=0;bottom=0;right=0;pointerEvents=1;fontSize=16;" vertex="1" parent="Bjrs3pC4CscEYjOhwciQ-1">
          <mxGeometry x="550" width="183" height="126" as="geometry">
            <mxRectangle width="183" height="126" as="alternateBounds" />
          </mxGeometry>
        </mxCell>
        <mxCell id="Bjrs3pC4CscEYjOhwciQ-6" value="Варианты реализации" style="shape=partialRectangle;html=1;whiteSpace=wrap;connectable=0;strokeColor=inherit;overflow=hidden;fillColor=none;top=0;left=0;bottom=0;right=0;pointerEvents=1;fontSize=16;" vertex="1" parent="Bjrs3pC4CscEYjOhwciQ-1">
          <mxGeometry x="733" width="183" height="126" as="geometry">
            <mxRectangle width="183" height="126" as="alternateBounds" />
          </mxGeometry>
        </mxCell>
        <mxCell id="Bjrs3pC4CscEYjOhwciQ-7" value="Интерес проблемы" style="shape=partialRectangle;html=1;whiteSpace=wrap;connectable=0;strokeColor=inherit;overflow=hidden;fillColor=none;top=0;left=0;bottom=0;right=0;pointerEvents=1;fontSize=16;" vertex="1" parent="Bjrs3pC4CscEYjOhwciQ-1">
          <mxGeometry x="916" width="183" height="126" as="geometry">
            <mxRectangle width="183" height="126" as="alternateBounds" />
          </mxGeometry>
        </mxCell>
        <mxCell id="Bjrs3pC4CscEYjOhwciQ-8" value="Предполагаемый вид проблемы" style="shape=partialRectangle;html=1;whiteSpace=wrap;connectable=0;strokeColor=inherit;overflow=hidden;fillColor=none;top=0;left=0;bottom=0;right=0;pointerEvents=1;fontSize=16;" vertex="1" parent="Bjrs3pC4CscEYjOhwciQ-1">
          <mxGeometry x="1099" width="183" height="126" as="geometry">
            <mxRectangle width="183" height="126" as="alternateBounds" />
          </mxGeometry>
        </mxCell>
        <mxCell id="Bjrs3pC4CscEYjOhwciQ-9" value="" style="shape=tableRow;horizontal=0;startSize=0;swimlaneHead=0;swimlaneBody=0;strokeColor=inherit;top=0;left=0;bottom=0;right=0;collapsible=0;dropTarget=0;fillColor=none;points=[[0,0.5],[1,0.5]];portConstraint=eastwest;fontSize=16;" vertex="1" parent="Bjrs3pC4CscEYjOhwciQ-0">
          <mxGeometry y="126" width="1282" height="128" as="geometry" />
        </mxCell>
        <mxCell id="Bjrs3pC4CscEYjOhwciQ-10" value="Привлечение клиентов" style="shape=partialRectangle;html=1;whiteSpace=wrap;connectable=0;strokeColor=inherit;overflow=hidden;fillColor=none;top=0;left=0;bottom=0;right=0;pointerEvents=1;fontSize=16;" vertex="1" parent="Bjrs3pC4CscEYjOhwciQ-9">
          <mxGeometry width="183" height="128" as="geometry">
            <mxRectangle width="183" height="128" as="alternateBounds" />
          </mxGeometry>
        </mxCell>
        <mxCell id="Bjrs3pC4CscEYjOhwciQ-11" value="нет" style="shape=partialRectangle;html=1;whiteSpace=wrap;connectable=0;strokeColor=inherit;overflow=hidden;fillColor=none;top=0;left=0;bottom=0;right=0;pointerEvents=1;fontSize=16;" vertex="1" parent="Bjrs3pC4CscEYjOhwciQ-9">
          <mxGeometry x="183" width="184" height="128" as="geometry">
            <mxRectangle width="184" height="128" as="alternateBounds" />
          </mxGeometry>
        </mxCell>
        <mxCell id="Bjrs3pC4CscEYjOhwciQ-12" value="низкая" style="shape=partialRectangle;html=1;whiteSpace=wrap;connectable=0;strokeColor=inherit;overflow=hidden;fillColor=none;top=0;left=0;bottom=0;right=0;pointerEvents=1;fontSize=16;" vertex="1" parent="Bjrs3pC4CscEYjOhwciQ-9">
          <mxGeometry x="367" width="183" height="128" as="geometry">
            <mxRectangle width="183" height="128" as="alternateBounds" />
          </mxGeometry>
        </mxCell>
        <mxCell id="Bjrs3pC4CscEYjOhwciQ-13" value="редкая" style="shape=partialRectangle;html=1;whiteSpace=wrap;connectable=0;strokeColor=inherit;overflow=hidden;fillColor=none;top=0;left=0;bottom=0;right=0;pointerEvents=1;fontSize=16;" vertex="1" parent="Bjrs3pC4CscEYjOhwciQ-9">
          <mxGeometry x="550" width="183" height="128" as="geometry">
            <mxRectangle width="183" height="128" as="alternateBounds" />
          </mxGeometry>
        </mxCell>
        <mxCell id="Bjrs3pC4CscEYjOhwciQ-14" value="инхаус" style="shape=partialRectangle;html=1;whiteSpace=wrap;connectable=0;strokeColor=inherit;overflow=hidden;fillColor=none;top=0;left=0;bottom=0;right=0;pointerEvents=1;fontSize=16;" vertex="1" parent="Bjrs3pC4CscEYjOhwciQ-9">
          <mxGeometry x="733" width="183" height="128" as="geometry">
            <mxRectangle width="183" height="128" as="alternateBounds" />
          </mxGeometry>
        </mxCell>
        <mxCell id="Bjrs3pC4CscEYjOhwciQ-15" value="низкий" style="shape=partialRectangle;html=1;whiteSpace=wrap;connectable=0;strokeColor=inherit;overflow=hidden;fillColor=none;top=0;left=0;bottom=0;right=0;pointerEvents=1;fontSize=16;" vertex="1" parent="Bjrs3pC4CscEYjOhwciQ-9">
          <mxGeometry x="916" width="183" height="128" as="geometry">
            <mxRectangle width="183" height="128" as="alternateBounds" />
          </mxGeometry>
        </mxCell>
        <mxCell id="Bjrs3pC4CscEYjOhwciQ-16" value="supporting" style="shape=partialRectangle;html=1;whiteSpace=wrap;connectable=0;strokeColor=inherit;overflow=hidden;fillColor=none;top=0;left=0;bottom=0;right=0;pointerEvents=1;fontSize=16;" vertex="1" parent="Bjrs3pC4CscEYjOhwciQ-9">
          <mxGeometry x="1099" width="183" height="128" as="geometry">
            <mxRectangle width="183" height="128" as="alternateBounds" />
          </mxGeometry>
        </mxCell>
        <mxCell id="Bjrs3pC4CscEYjOhwciQ-17" value="" style="shape=tableRow;horizontal=0;startSize=0;swimlaneHead=0;swimlaneBody=0;strokeColor=inherit;top=0;left=0;bottom=0;right=0;collapsible=0;dropTarget=0;fillColor=none;points=[[0,0.5],[1,0.5]];portConstraint=eastwest;fontSize=16;" vertex="1" parent="Bjrs3pC4CscEYjOhwciQ-0">
          <mxGeometry y="254" width="1282" height="126" as="geometry" />
        </mxCell>
        <mxCell id="Bjrs3pC4CscEYjOhwciQ-18" value="Отбор котов-воркеров" style="shape=partialRectangle;html=1;whiteSpace=wrap;connectable=0;strokeColor=inherit;overflow=hidden;fillColor=none;top=0;left=0;bottom=0;right=0;pointerEvents=1;fontSize=16;" vertex="1" parent="Bjrs3pC4CscEYjOhwciQ-17">
          <mxGeometry width="183" height="126" as="geometry">
            <mxRectangle width="183" height="126" as="alternateBounds" />
          </mxGeometry>
        </mxCell>
        <mxCell id="Bjrs3pC4CscEYjOhwciQ-19" value="нет" style="shape=partialRectangle;html=1;whiteSpace=wrap;connectable=0;strokeColor=inherit;overflow=hidden;fillColor=none;top=0;left=0;bottom=0;right=0;pointerEvents=1;fontSize=16;" vertex="1" parent="Bjrs3pC4CscEYjOhwciQ-17">
          <mxGeometry x="183" width="184" height="126" as="geometry">
            <mxRectangle width="184" height="126" as="alternateBounds" />
          </mxGeometry>
        </mxCell>
        <mxCell id="Bjrs3pC4CscEYjOhwciQ-20" value="высокая" style="shape=partialRectangle;html=1;whiteSpace=wrap;connectable=0;strokeColor=inherit;overflow=hidden;fillColor=none;top=0;left=0;bottom=0;right=0;pointerEvents=1;fontSize=16;" vertex="1" parent="Bjrs3pC4CscEYjOhwciQ-17">
          <mxGeometry x="367" width="183" height="126" as="geometry">
            <mxRectangle width="183" height="126" as="alternateBounds" />
          </mxGeometry>
        </mxCell>
        <mxCell id="Bjrs3pC4CscEYjOhwciQ-21" value="частая" style="shape=partialRectangle;html=1;whiteSpace=wrap;connectable=0;strokeColor=inherit;overflow=hidden;fillColor=none;top=0;left=0;bottom=0;right=0;pointerEvents=1;fontSize=16;" vertex="1" parent="Bjrs3pC4CscEYjOhwciQ-17">
          <mxGeometry x="550" width="183" height="126" as="geometry">
            <mxRectangle width="183" height="126" as="alternateBounds" />
          </mxGeometry>
        </mxCell>
        <mxCell id="Bjrs3pC4CscEYjOhwciQ-22" value="инхаус" style="shape=partialRectangle;html=1;whiteSpace=wrap;connectable=0;strokeColor=inherit;overflow=hidden;fillColor=none;top=0;left=0;bottom=0;right=0;pointerEvents=1;fontSize=16;" vertex="1" parent="Bjrs3pC4CscEYjOhwciQ-17">
          <mxGeometry x="733" width="183" height="126" as="geometry">
            <mxRectangle width="183" height="126" as="alternateBounds" />
          </mxGeometry>
        </mxCell>
        <mxCell id="Bjrs3pC4CscEYjOhwciQ-23" value="высокий" style="shape=partialRectangle;html=1;whiteSpace=wrap;connectable=0;strokeColor=inherit;overflow=hidden;fillColor=none;top=0;left=0;bottom=0;right=0;pointerEvents=1;fontSize=16;" vertex="1" parent="Bjrs3pC4CscEYjOhwciQ-17">
          <mxGeometry x="916" width="183" height="126" as="geometry">
            <mxRectangle width="183" height="126" as="alternateBounds" />
          </mxGeometry>
        </mxCell>
        <mxCell id="Bjrs3pC4CscEYjOhwciQ-24" value="core" style="shape=partialRectangle;html=1;whiteSpace=wrap;connectable=0;strokeColor=inherit;overflow=hidden;fillColor=none;top=0;left=0;bottom=0;right=0;pointerEvents=1;fontSize=16;" vertex="1" parent="Bjrs3pC4CscEYjOhwciQ-17">
          <mxGeometry x="1099" width="183" height="126" as="geometry">
            <mxRectangle width="183" height="126" as="alternateBounds" />
          </mxGeometry>
        </mxCell>
        <mxCell id="Bjrs3pC4CscEYjOhwciQ-25" style="shape=tableRow;horizontal=0;startSize=0;swimlaneHead=0;swimlaneBody=0;strokeColor=inherit;top=0;left=0;bottom=0;right=0;collapsible=0;dropTarget=0;fillColor=none;points=[[0,0.5],[1,0.5]];portConstraint=eastwest;fontSize=16;" vertex="1" parent="Bjrs3pC4CscEYjOhwciQ-0">
          <mxGeometry y="380" width="1282" height="126" as="geometry" />
        </mxCell>
        <mxCell id="Bjrs3pC4CscEYjOhwciQ-26" value="Эффективный&lt;div&gt;матчинг воркеров и заказов&lt;/div&gt;" style="shape=partialRectangle;html=1;whiteSpace=wrap;connectable=0;strokeColor=inherit;overflow=hidden;fillColor=none;top=0;left=0;bottom=0;right=0;pointerEvents=1;fontSize=16;" vertex="1" parent="Bjrs3pC4CscEYjOhwciQ-25">
          <mxGeometry width="183" height="126" as="geometry">
            <mxRectangle width="183" height="126" as="alternateBounds" />
          </mxGeometry>
        </mxCell>
        <mxCell id="Bjrs3pC4CscEYjOhwciQ-27" value="да" style="shape=partialRectangle;html=1;whiteSpace=wrap;connectable=0;strokeColor=inherit;overflow=hidden;fillColor=none;top=0;left=0;bottom=0;right=0;pointerEvents=1;fontSize=16;" vertex="1" parent="Bjrs3pC4CscEYjOhwciQ-25">
          <mxGeometry x="183" width="184" height="126" as="geometry">
            <mxRectangle width="184" height="126" as="alternateBounds" />
          </mxGeometry>
        </mxCell>
        <mxCell id="Bjrs3pC4CscEYjOhwciQ-28" value="высокая" style="shape=partialRectangle;html=1;whiteSpace=wrap;connectable=0;strokeColor=inherit;overflow=hidden;fillColor=none;top=0;left=0;bottom=0;right=0;pointerEvents=1;fontSize=16;" vertex="1" parent="Bjrs3pC4CscEYjOhwciQ-25">
          <mxGeometry x="367" width="183" height="126" as="geometry">
            <mxRectangle width="183" height="126" as="alternateBounds" />
          </mxGeometry>
        </mxCell>
        <mxCell id="Bjrs3pC4CscEYjOhwciQ-29" value="частая" style="shape=partialRectangle;html=1;whiteSpace=wrap;connectable=0;strokeColor=inherit;overflow=hidden;fillColor=none;top=0;left=0;bottom=0;right=0;pointerEvents=1;fontSize=16;" vertex="1" parent="Bjrs3pC4CscEYjOhwciQ-25">
          <mxGeometry x="550" width="183" height="126" as="geometry">
            <mxRectangle width="183" height="126" as="alternateBounds" />
          </mxGeometry>
        </mxCell>
        <mxCell id="Bjrs3pC4CscEYjOhwciQ-30" value="инхаус" style="shape=partialRectangle;html=1;whiteSpace=wrap;connectable=0;strokeColor=inherit;overflow=hidden;fillColor=none;top=0;left=0;bottom=0;right=0;pointerEvents=1;fontSize=16;" vertex="1" parent="Bjrs3pC4CscEYjOhwciQ-25">
          <mxGeometry x="733" width="183" height="126" as="geometry">
            <mxRectangle width="183" height="126" as="alternateBounds" />
          </mxGeometry>
        </mxCell>
        <mxCell id="Bjrs3pC4CscEYjOhwciQ-31" value="высокий" style="shape=partialRectangle;html=1;whiteSpace=wrap;connectable=0;strokeColor=inherit;overflow=hidden;fillColor=none;top=0;left=0;bottom=0;right=0;pointerEvents=1;fontSize=16;" vertex="1" parent="Bjrs3pC4CscEYjOhwciQ-25">
          <mxGeometry x="916" width="183" height="126" as="geometry">
            <mxRectangle width="183" height="126" as="alternateBounds" />
          </mxGeometry>
        </mxCell>
        <mxCell id="Bjrs3pC4CscEYjOhwciQ-32" value="core" style="shape=partialRectangle;html=1;whiteSpace=wrap;connectable=0;strokeColor=inherit;overflow=hidden;fillColor=none;top=0;left=0;bottom=0;right=0;pointerEvents=1;fontSize=16;" vertex="1" parent="Bjrs3pC4CscEYjOhwciQ-25">
          <mxGeometry x="1099" width="183" height="126" as="geometry">
            <mxRectangle width="183" height="126" as="alternateBounds" />
          </mxGeometry>
        </mxCell>
        <mxCell id="Bjrs3pC4CscEYjOhwciQ-33" style="shape=tableRow;horizontal=0;startSize=0;swimlaneHead=0;swimlaneBody=0;strokeColor=inherit;top=0;left=0;bottom=0;right=0;collapsible=0;dropTarget=0;fillColor=none;points=[[0,0.5],[1,0.5]];portConstraint=eastwest;fontSize=16;" vertex="1" parent="Bjrs3pC4CscEYjOhwciQ-0">
          <mxGeometry y="506" width="1282" height="126" as="geometry" />
        </mxCell>
        <mxCell id="Bjrs3pC4CscEYjOhwciQ-34" value="Управление заказами" style="shape=partialRectangle;html=1;whiteSpace=wrap;connectable=0;strokeColor=inherit;overflow=hidden;fillColor=none;top=0;left=0;bottom=0;right=0;pointerEvents=1;fontSize=16;" vertex="1" parent="Bjrs3pC4CscEYjOhwciQ-33">
          <mxGeometry width="183" height="126" as="geometry">
            <mxRectangle width="183" height="126" as="alternateBounds" />
          </mxGeometry>
        </mxCell>
        <mxCell id="Bjrs3pC4CscEYjOhwciQ-35" value="нет" style="shape=partialRectangle;html=1;whiteSpace=wrap;connectable=0;strokeColor=inherit;overflow=hidden;fillColor=none;top=0;left=0;bottom=0;right=0;pointerEvents=1;fontSize=16;" vertex="1" parent="Bjrs3pC4CscEYjOhwciQ-33">
          <mxGeometry x="183" width="184" height="126" as="geometry">
            <mxRectangle width="184" height="126" as="alternateBounds" />
          </mxGeometry>
        </mxCell>
        <mxCell id="Bjrs3pC4CscEYjOhwciQ-36" value="высокая" style="shape=partialRectangle;html=1;whiteSpace=wrap;connectable=0;strokeColor=inherit;overflow=hidden;fillColor=none;top=0;left=0;bottom=0;right=0;pointerEvents=1;fontSize=16;" vertex="1" parent="Bjrs3pC4CscEYjOhwciQ-33">
          <mxGeometry x="367" width="183" height="126" as="geometry">
            <mxRectangle width="183" height="126" as="alternateBounds" />
          </mxGeometry>
        </mxCell>
        <mxCell id="Bjrs3pC4CscEYjOhwciQ-37" value="редкая" style="shape=partialRectangle;html=1;whiteSpace=wrap;connectable=0;strokeColor=inherit;overflow=hidden;fillColor=none;top=0;left=0;bottom=0;right=0;pointerEvents=1;fontSize=16;" vertex="1" parent="Bjrs3pC4CscEYjOhwciQ-33">
          <mxGeometry x="550" width="183" height="126" as="geometry">
            <mxRectangle width="183" height="126" as="alternateBounds" />
          </mxGeometry>
        </mxCell>
        <mxCell id="Bjrs3pC4CscEYjOhwciQ-38" value="инхаус" style="shape=partialRectangle;html=1;whiteSpace=wrap;connectable=0;strokeColor=inherit;overflow=hidden;fillColor=none;top=0;left=0;bottom=0;right=0;pointerEvents=1;fontSize=16;" vertex="1" parent="Bjrs3pC4CscEYjOhwciQ-33">
          <mxGeometry x="733" width="183" height="126" as="geometry">
            <mxRectangle width="183" height="126" as="alternateBounds" />
          </mxGeometry>
        </mxCell>
        <mxCell id="Bjrs3pC4CscEYjOhwciQ-39" value="низкий" style="shape=partialRectangle;html=1;whiteSpace=wrap;connectable=0;strokeColor=inherit;overflow=hidden;fillColor=none;top=0;left=0;bottom=0;right=0;pointerEvents=1;fontSize=16;" vertex="1" parent="Bjrs3pC4CscEYjOhwciQ-33">
          <mxGeometry x="916" width="183" height="126" as="geometry">
            <mxRectangle width="183" height="126" as="alternateBounds" />
          </mxGeometry>
        </mxCell>
        <mxCell id="Bjrs3pC4CscEYjOhwciQ-40" value="supporting" style="shape=partialRectangle;html=1;whiteSpace=wrap;connectable=0;strokeColor=inherit;overflow=hidden;fillColor=none;top=0;left=0;bottom=0;right=0;pointerEvents=1;fontSize=16;" vertex="1" parent="Bjrs3pC4CscEYjOhwciQ-33">
          <mxGeometry x="1099" width="183" height="126" as="geometry">
            <mxRectangle width="183" height="126" as="alternateBounds" />
          </mxGeometry>
        </mxCell>
        <mxCell id="Bjrs3pC4CscEYjOhwciQ-41" style="shape=tableRow;horizontal=0;startSize=0;swimlaneHead=0;swimlaneBody=0;strokeColor=inherit;top=0;left=0;bottom=0;right=0;collapsible=0;dropTarget=0;fillColor=none;points=[[0,0.5],[1,0.5]];portConstraint=eastwest;fontSize=16;" vertex="1" parent="Bjrs3pC4CscEYjOhwciQ-0">
          <mxGeometry y="632" width="1282" height="126" as="geometry" />
        </mxCell>
        <mxCell id="Bjrs3pC4CscEYjOhwciQ-42" value="Сборка расходников для заказа" style="shape=partialRectangle;html=1;whiteSpace=wrap;connectable=0;strokeColor=inherit;overflow=hidden;fillColor=none;top=0;left=0;bottom=0;right=0;pointerEvents=1;fontSize=16;" vertex="1" parent="Bjrs3pC4CscEYjOhwciQ-41">
          <mxGeometry width="183" height="126" as="geometry">
            <mxRectangle width="183" height="126" as="alternateBounds" />
          </mxGeometry>
        </mxCell>
        <mxCell id="Bjrs3pC4CscEYjOhwciQ-43" value="нет" style="shape=partialRectangle;html=1;whiteSpace=wrap;connectable=0;strokeColor=inherit;overflow=hidden;fillColor=none;top=0;left=0;bottom=0;right=0;pointerEvents=1;fontSize=16;" vertex="1" parent="Bjrs3pC4CscEYjOhwciQ-41">
          <mxGeometry x="183" width="184" height="126" as="geometry">
            <mxRectangle width="184" height="126" as="alternateBounds" />
          </mxGeometry>
        </mxCell>
        <mxCell id="Bjrs3pC4CscEYjOhwciQ-44" value="высокая" style="shape=partialRectangle;html=1;whiteSpace=wrap;connectable=0;strokeColor=inherit;overflow=hidden;fillColor=none;top=0;left=0;bottom=0;right=0;pointerEvents=1;fontSize=16;" vertex="1" parent="Bjrs3pC4CscEYjOhwciQ-41">
          <mxGeometry x="367" width="183" height="126" as="geometry">
            <mxRectangle width="183" height="126" as="alternateBounds" />
          </mxGeometry>
        </mxCell>
        <mxCell id="Bjrs3pC4CscEYjOhwciQ-45" value="редкая" style="shape=partialRectangle;html=1;whiteSpace=wrap;connectable=0;strokeColor=inherit;overflow=hidden;fillColor=none;top=0;left=0;bottom=0;right=0;pointerEvents=1;fontSize=16;" vertex="1" parent="Bjrs3pC4CscEYjOhwciQ-41">
          <mxGeometry x="550" width="183" height="126" as="geometry">
            <mxRectangle width="183" height="126" as="alternateBounds" />
          </mxGeometry>
        </mxCell>
        <mxCell id="Bjrs3pC4CscEYjOhwciQ-46" value="готовое решение" style="shape=partialRectangle;html=1;whiteSpace=wrap;connectable=0;strokeColor=inherit;overflow=hidden;fillColor=none;top=0;left=0;bottom=0;right=0;pointerEvents=1;fontSize=16;" vertex="1" parent="Bjrs3pC4CscEYjOhwciQ-41">
          <mxGeometry x="733" width="183" height="126" as="geometry">
            <mxRectangle width="183" height="126" as="alternateBounds" />
          </mxGeometry>
        </mxCell>
        <mxCell id="Bjrs3pC4CscEYjOhwciQ-47" value="низкий" style="shape=partialRectangle;html=1;whiteSpace=wrap;connectable=0;strokeColor=inherit;overflow=hidden;fillColor=none;top=0;left=0;bottom=0;right=0;pointerEvents=1;fontSize=16;" vertex="1" parent="Bjrs3pC4CscEYjOhwciQ-41">
          <mxGeometry x="916" width="183" height="126" as="geometry">
            <mxRectangle width="183" height="126" as="alternateBounds" />
          </mxGeometry>
        </mxCell>
        <mxCell id="Bjrs3pC4CscEYjOhwciQ-48" value="supporting" style="shape=partialRectangle;html=1;whiteSpace=wrap;connectable=0;strokeColor=inherit;overflow=hidden;fillColor=none;top=0;left=0;bottom=0;right=0;pointerEvents=1;fontSize=16;" vertex="1" parent="Bjrs3pC4CscEYjOhwciQ-41">
          <mxGeometry x="1099" width="183" height="126" as="geometry">
            <mxRectangle width="183" height="126" as="alternateBounds" />
          </mxGeometry>
        </mxCell>
        <mxCell id="Bjrs3pC4CscEYjOhwciQ-49" style="shape=tableRow;horizontal=0;startSize=0;swimlaneHead=0;swimlaneBody=0;strokeColor=inherit;top=0;left=0;bottom=0;right=0;collapsible=0;dropTarget=0;fillColor=none;points=[[0,0.5],[1,0.5]];portConstraint=eastwest;fontSize=16;" vertex="1" parent="Bjrs3pC4CscEYjOhwciQ-0">
          <mxGeometry y="758" width="1282" height="126" as="geometry" />
        </mxCell>
        <mxCell id="Bjrs3pC4CscEYjOhwciQ-50" value="Мотивация менеджеров" style="shape=partialRectangle;html=1;whiteSpace=wrap;connectable=0;strokeColor=inherit;overflow=hidden;fillColor=none;top=0;left=0;bottom=0;right=0;pointerEvents=1;fontSize=16;" vertex="1" parent="Bjrs3pC4CscEYjOhwciQ-49">
          <mxGeometry width="183" height="126" as="geometry">
            <mxRectangle width="183" height="126" as="alternateBounds" />
          </mxGeometry>
        </mxCell>
        <mxCell id="Bjrs3pC4CscEYjOhwciQ-51" value="нет" style="shape=partialRectangle;html=1;whiteSpace=wrap;connectable=0;strokeColor=inherit;overflow=hidden;fillColor=none;top=0;left=0;bottom=0;right=0;pointerEvents=1;fontSize=16;" vertex="1" parent="Bjrs3pC4CscEYjOhwciQ-49">
          <mxGeometry x="183" width="184" height="126" as="geometry">
            <mxRectangle width="184" height="126" as="alternateBounds" />
          </mxGeometry>
        </mxCell>
        <mxCell id="Bjrs3pC4CscEYjOhwciQ-52" value="низкая" style="shape=partialRectangle;html=1;whiteSpace=wrap;connectable=0;strokeColor=inherit;overflow=hidden;fillColor=none;top=0;left=0;bottom=0;right=0;pointerEvents=1;fontSize=16;" vertex="1" parent="Bjrs3pC4CscEYjOhwciQ-49">
          <mxGeometry x="367" width="183" height="126" as="geometry">
            <mxRectangle width="183" height="126" as="alternateBounds" />
          </mxGeometry>
        </mxCell>
        <mxCell id="Bjrs3pC4CscEYjOhwciQ-53" value="редкая" style="shape=partialRectangle;html=1;whiteSpace=wrap;connectable=0;strokeColor=inherit;overflow=hidden;fillColor=none;top=0;left=0;bottom=0;right=0;pointerEvents=1;fontSize=16;" vertex="1" parent="Bjrs3pC4CscEYjOhwciQ-49">
          <mxGeometry x="550" width="183" height="126" as="geometry">
            <mxRectangle width="183" height="126" as="alternateBounds" />
          </mxGeometry>
        </mxCell>
        <mxCell id="Bjrs3pC4CscEYjOhwciQ-54" value="инхаус" style="shape=partialRectangle;html=1;whiteSpace=wrap;connectable=0;strokeColor=inherit;overflow=hidden;fillColor=none;top=0;left=0;bottom=0;right=0;pointerEvents=1;fontSize=16;" vertex="1" parent="Bjrs3pC4CscEYjOhwciQ-49">
          <mxGeometry x="733" width="183" height="126" as="geometry">
            <mxRectangle width="183" height="126" as="alternateBounds" />
          </mxGeometry>
        </mxCell>
        <mxCell id="Bjrs3pC4CscEYjOhwciQ-55" value="низкий" style="shape=partialRectangle;html=1;whiteSpace=wrap;connectable=0;strokeColor=inherit;overflow=hidden;fillColor=none;top=0;left=0;bottom=0;right=0;pointerEvents=1;fontSize=16;" vertex="1" parent="Bjrs3pC4CscEYjOhwciQ-49">
          <mxGeometry x="916" width="183" height="126" as="geometry">
            <mxRectangle width="183" height="126" as="alternateBounds" />
          </mxGeometry>
        </mxCell>
        <mxCell id="Bjrs3pC4CscEYjOhwciQ-56" value="generic" style="shape=partialRectangle;html=1;whiteSpace=wrap;connectable=0;strokeColor=inherit;overflow=hidden;fillColor=none;top=0;left=0;bottom=0;right=0;pointerEvents=1;fontSize=16;" vertex="1" parent="Bjrs3pC4CscEYjOhwciQ-49">
          <mxGeometry x="1099" width="183" height="126" as="geometry">
            <mxRectangle width="183" height="126" as="alternateBounds" />
          </mxGeometry>
        </mxCell>
      </root>
    </mxGraphModel>
  </diagram>
</mxfile>
